<?xml version="1.0" standalone="no"?>
<!DOCTYPE svg PUBLIC "-//W3C//DTD SVG 20010904//EN"
 "http://www.w3.org/TR/2001/REC-SVG-20010904/DTD/svg10.dtd">
<svg version="1.0" xmlns="http://www.w3.org/2000/svg"
 width="260.000000pt" height="260.000000pt" viewBox="0 0 260.000000 260.000000"
 preserveAspectRatio="xMidYMid meet">
<metadata>
Created by potrace 1.14, written by Peter Selinger 2001-2017
</metadata>
<g transform="translate(0.000000,260.000000) scale(0.100000,-0.100000)"
fill="#000000" stroke="none">
<path d="M80 1305 c0 -135 3 -245 8 -245 4 1 120 111 257 245 l250 244 -101 1
-102 0 -76 -76 c-42 -41 -76 -71 -77 -67 0 4 -2 37 -2 73 l-2 65 -77 3 -78 3
0 -246z"/>
<path d="M642 1305 c0 -135 3 -245 7 -245 4 0 36 29 71 65 l64 65 95 0 95 0
-54 55 c-45 45 -60 54 -94 57 -40 3 -40 3 -42 45 -1 35 2 43 20 46 22 3 26 -1
249 -233 l107 -112 0 95 0 94 -75 79 c-42 44 -108 114 -148 157 l-72 77 -111
0 -111 0 -1 -245z"/>
<path d="M1110 1471 l0 -79 81 2 c46 1 83 -3 88 -9 4 -5 6 -81 6 -167 -1 -87
2 -158 6 -158 4 0 33 23 64 52 31 29 63 57 72 63 11 9 15 33 14 113 -1 56 2
102 7 103 4 0 45 2 92 2 l85 2 3 78 3 77 -261 0 -260 0 0 -79z"/>
<path d="M1728 1545 c-2 -3 41 -117 96 -255 55 -137 101 -248 103 -246 5 4 39
95 59 156 8 25 19 54 24 65 15 34 100 271 100 279 0 4 -7 6 -16 4 -11 -2 -38
-64 -84 -188 -37 -102 -72 -196 -77 -209 -8 -20 -21 6 -93 188 -74 188 -94
224 -112 206z"/>
<path d="M2160 1301 c0 -216 2 -251 15 -251 11 0 15 12 16 43 0 23 1 71 2 107
l2 65 55 3 56 3 93 -116 c82 -103 111 -127 111 -94 0 9 -60 90 -80 109 -3 3
-23 26 -44 53 -29 35 -34 47 -22 47 21 0 74 27 96 49 55 55 41 154 -28 206
-23 17 -46 21 -149 23 l-123 4 0 -251z m266 187 c34 -33 43 -98 20 -134 -25
-38 -68 -51 -168 -53 l-89 -2 2 111 1 112 104 -4 c96 -4 107 -6 130 -30z"/>
<path d="M327 1221 l-46 -48 63 -62 62 -62 93 3 92 3 -106 105 c-58 58 -107
106 -109 108 -1 1 -23 -20 -49 -47z"/>
</g>
</svg>
